<?xml version="1.0" encoding="utf-8"?>
<!-- Generator: Adobe Illustrator 22.1.0, SVG Export Plug-In . SVG Version: 6.00 Build 0)  -->
<svg version="1.1" xmlns="http://www.w3.org/2000/svg" xmlns:xlink="http://www.w3.org/1999/xlink" x="0px" y="0px"
	 viewBox="0 0 815 638" style="enable-background:new 0 0 815 638;" xml:space="preserve">
<style type="text/css">
	.st0{display:none;}
	.st1{display:inline;fill:#F9ECC7;}
	.st2{display:inline;fill:#F7C6A1;}
	.st3{display:inline;fill:#F4C290;}
	.st4{display:inline;fill:url(#SVGID_1_);}
	.st5{fill:#E6F4FC;}
	.st6{fill:#BAD6C9;}
	.st7{fill:#CCE5D9;}
	.st8{fill:#C4887A;}
	.st9{fill:#1E2660;}
	.st10{opacity:0.21;fill:none;stroke:#FFFFFF;stroke-miterlimit:10;}
	.st11{opacity:0.3;fill:none;stroke:#E9EFF8;stroke-miterlimit:10;}
	.st12{fill:#B27A72;}
	.st13{fill:#AD3D3D;}
	.st14{opacity:0.11;}
	.st15{fill:#091C33;}
	.st16{fill:#C38675;}
	.st17{fill:#131C49;}
	.st18{opacity:0.25;fill:none;stroke:#FFFFFF;stroke-miterlimit:10;}
	.st19{fill:#BC4242;}
	.st20{fill:none;stroke:#000000;stroke-miterlimit:10;}
	.st21{opacity:0.18;}
	.st22{fill:#061E34;}
	.st23{opacity:0.2;fill:none;stroke:#FFFFFF;stroke-miterlimit:10;}
	.st24{fill:none;stroke:#BD7F71;stroke-miterlimit:10;}
	.st25{fill:#DFE9F4;}
	.st26{fill:#FFFFFF;}
	.st27{fill:#FFC847;}
	.st28{fill:#14253B;}
	.st29{fill:#0C1F36;}
	.st30{fill:#112238;}
</style>
<g id="bg" class="st0">
	<path class="st1" d="M110.5,468.5c45.2,78.4,132.1,104.1,268,68c195.2-62,432.6-100,304-346c-67.2-86.7-139.7-110.7-229.6-34.7
		c-27.3,23.1-64,32.1-98.8,23.9c-0.3-0.1-0.7-0.2-1-0.2c-9.3-2.3-18-6.6-25.6-12.6c-57.7-45.2-104.5-21.8-147,29.6l-2,127
		c10.3,44.7-8.4,55.1-52,36c-42.7-25.7-42.5,0.6-39,31C90.1,416.7,98.4,442.7,110.5,468.5z"/>
</g>
<g id="Слой_10__x28_копия_x29_" class="st0">
	<path class="st2" d="M238,392.1l363.8,69.1c101.4-47.9,159.2-120.6,80.7-270.7c-1.6-2-3.1-4-4.7-5.9
		C445.9,227.6,296.1,295.7,238,392.1z"/>
</g>
<g id="Слой_11" class="st0">
	<path class="st3" d="M357,403c-65.5-71.8-125.2-118.7-177.4-148.9l-1.1,69.4c10.3,44.7-8.4,55.1-52,36c-42.7-25.7-42.5,0.6-39,31
		c2.6,26.2,10.9,52.2,23,78c45.2,78.4,132.1,104.1,268,68c9.1-2.9,18.3-5.7,27.5-8.5C420,499.9,408.8,459.8,357,403z"/>
</g>
<g id="Слой_9" class="st0">
	<linearGradient id="SVGID_1_" gradientUnits="userSpaceOnUse" x1="391.6822" y1="554.1628" x2="394.3643" y2="348.3242">
		<stop  offset="0" style="stop-color:#E99469"/>
		<stop  offset="0.9944" style="stop-color:#E99469"/>
	</linearGradient>
	<path class="st4" d="M378.5,536.5c124.6-39.6,266.4-69.4,319.2-149.8c-129-46.5-433.5-61.3-608,19.5c3.9,20.9,11.1,41.7,20.8,62.3
		C155.7,546.9,242.6,572.6,378.5,536.5z"/>
</g>
<g id="bg__x28_копия_x29_">
	<path class="st5" d="M110.5,468.5c45.2,78.4,132.1,104.1,268,68c195.2-62,432.6-100,304-346c-67.2-86.7-139.7-110.7-229.6-34.7
		c-27.3,23.1-64,32.1-98.8,23.9c-0.3-0.1-0.7-0.2-1-0.2c-9.3-2.3-18-6.6-25.6-12.6c-57.7-45.2-104.5-21.8-147,29.6l-2,127
		c10.3,44.7-8.4,55.1-52,36c-42.7-25.7-42.5,0.6-39,31C90.1,416.7,98.4,442.7,110.5,468.5z"/>
</g>
<g id="Слой_10__x28_копия2_x29_">
	<path class="st6" d="M164,446.7l316.8,58.8C641,456.4,782.8,396.8,689,203.4C412.4,254,233.5,333.9,164,446.7z"/>
</g>
<g id="Слой_9__x28_копия_x29_">
	<path class="st7" d="M178.5,322.4l0,1.1c10.3,44.7-8.4,55.1-52,36c-42.7-25.7-42.5,0.6-39,31c2.6,26.2,10.9,52.2,23,78
		c45.2,78.4,132.1,104.1,268,68c128.3-40.8,274.9-71.2,323.7-157.1C586.4,323.1,358.3,284.9,178.5,322.4z"/>
</g>
<g id="woman">
	<g id="Слой_7">
		<path class="st8" d="M281.5,232.5l5.5-5.5c0.4-0.4,0.6-0.8,0.9-1.2l4.2-6.8c0.6-1.3,2.6-2.9,4-3l10.3-2.3c1-0.1,1.7,1,1.2,1.8l0,0
			c-0.6,0.6-1.4,1-2.2,1.2c-7,1.3-8.5,5.9-4.8,6.8l20.3-2.3c1.2-0.1,1.7,2.3,1.7,2.3s-3,10-27,13l-7,8L281.5,232.5z"/>
	</g>
	<path class="st8" d="M147,327l5,2l-2,21c-3.3,7.6-9,4.1-9,2c-1.6-5-1.1-9.7,0-13.2"/>
	<path class="st9" d="M149.5,327.5l-9,12l-39.7-21.1c-6.5-3.5-11.4-9.6-12.9-16.9c-0.3-1.3-0.4-2.7-0.4-4c0-8,16-23,16-23
		s36.7-40,67-40c30,0,46,23,46,23c7,7.9,14.8,10.7,23.3,8.7c4.5-1.1,8.5-3.5,11.9-6.7l27.7-26.8c0.6-0.6,1.7-0.6,2.3,0.1l10.4,11.2
		c0.9,0.9,0.9,2.3,0.2,3.3l-27.8,36.2c-3.9,5.1-8.6,9.5-14,12.8c-6.3,3.8-12.6,5.9-19,5.8c-5.6-0.1-11-2-15.6-5.2l-12.2-8.4v23
		c-17.3,6.1-34.3,6.1-51-3v-3l-5-28c-9.8,7.4-20.2,13.9-31.3,19.6l-0.1,0.9L149.5,327.5z"/>
	<line class="st10" x1="152.5" y1="271.5" x2="147" y2="279"/>
	<path class="st11" d="M200.5,251.5c13.3,17.3,15.1,29.3,5.3,36c-3,2.1-6.7,3.1-10.3,3.2c-10,0.4-19.7,0.2-29-1.2"/>
	<path class="st12" d="M195.4,540.7l3.7-30.3l0.9-7.4l-23,2l-3.8,25.8C180.2,534.6,187.6,537.9,195.4,540.7z"/>
	<path class="st8" d="M155,519.3c7,5.2,14.5,9.8,22.4,13.7l1.6-38l-24,7V519.3z"/>
	<path class="st13" d="M203.5,307.5l78,145c4.9,7.7,0.5,15.2-9.6,22.4c-1.5,1-3.1,1.9-4.8,2.5c-10.5,4.2-20,10.2-28.4,18
		c-1.7,1.6-3.3,3.5-4.8,5.3c-2.8,3.3-8.8,6-15.1,8.1c-10.1,3.3-20.8,4.9-31.5,5c-5.4,0-11.9,0-17.6-0.4c-4.4-0.3-8.8-1.1-13.1-2.2
		c-4.7-1.3-9.3-2.2-14-1.8c-0.8,0.1-1.7,0.2-2.5,0.2c-9.4-0.1-15.2-2.8-13.8-11l26-191C170.3,314.5,187.4,314.8,203.5,307.5z"/>
	<path class="st14" d="M164,316c0,0-21,136-19,184"/>
	<path class="st8" d="M162,223l-1,14c0,0,12,20,23,19c8.3-0.8,6.9-7.7,5.8-11.1c-0.6-1.9-1.1-3.8-1.4-5.7L185,219l10-1l5-8l3-12
		l-2-10l-11-15l-13-1l-15,17l-4,16L162,223z"/>
	<path class="st15" d="M212.9,196.8c2.3-5.3,1.3-7.9-4.1-9.9c-5.6-2.1-9.8-5.8-12.6-11c-2.5-1.8-3.8-4.8-6.8-5.9
		c-8.6-5.8-24.6-5.4-32.5,0.7c0,0,0,0,0,0c-3.8,1.7-6.6,4.5-8.4,8.3c0,0,0,0,0,0c-0.6,0.2-0.7,0.7-0.6,1.3c-0.6,1.2-1.4,2.4-1.8,3.6
		c-2.8,10.9-3.3,22-1.7,33.1c0.6,4,2.7,7.4,6.8,9c0.6,1.1,1.8,1.1,2.7,1.6c8.4,2,13.8-2.9,18.7-8.4c5.8-6.5,4.5-12.2-3-16.2
		c-0.7-0.4-1.4-0.8-2-1.4c-1.4-1.2-2.4-2.7-2.6-4.5c-0.1-1.3,0.1-2.6,1.6-2.9c1.4-0.3,1.9,0.9,2.2,1.9c0.4,1.2,0.5,2.4,1.3,3.4
		c1.3,1.7,2.9,3.2,5.2,2.2c2.2-1,2.5-3.1,2-5.3c-0.3-1.3-1.1-2.5-1.5-3.8c-0.5-1.5-0.2-2.9,1.4-3.3c6.1-1.8,9.9-5.9,12.2-12.4
		c3.5,4.9,5.4,9.5,7.1,14.3c1.9,5.5,2.1,11,0.6,16.5c-1.7,6.2-3.9,7.9-10.4,8.4c-1.6,0.1-2.9,0.5-3.4,2.3c-1.5,5.5,1.5,9.1,7.1,8.5
		c0.4-0.1,0.8-0.1,1.2-0.2c7.4-1.3,8.2-2.2,8.8-9.8c0.1-1.6,1.2-1.9,2.3-2.4c2.7-1.4,5.4-2.6,7.7-4.6c1.6-1.4,3.3-3.7,1.9-5.3
		C209.8,201.3,211.8,199.2,212.9,196.8z"/>
</g>
<g id="man_1">
	<path class="st16" d="M484,257l-18-2c0,0-5,112,12,114S484,257,484,257z"/>
	<path class="st17" d="M555,320l-74-8c-6.9,43.1-10.4,118.9-13.5,197.5c12.8-3.9,25.6-7.8,38.1-11.8L508,481l0.9,15.7
		c14.1-4.6,28-9.3,41.5-14.2C558.8,409,562.8,320.1,555,320z"/>
	<path class="st18" d="M510.5,386.5c0,0-7,49-2,95"/>
	<path class="st19" d="M479.5,259.5l-15.4-1.7c-1.4-0.2-2.5-1.5-2.2-2.9c2.6-17,6.7-32.8,13.6-46.3c2.3-4.5,5.9-8.2,10.3-10.7
		c17.5-9.7,33-15.6,44.6-14.4c22.3,6.9,30.1,9.5,48.5,20.5l3,60l-17.5,7.5l-5.4,48.6c-0.6,5.3-3.6,10.1-8.3,12.7
		c-17.1,9.6-54.8,9.9-71.3-8.3V259.5z"/>
	<path class="st20" d="M519.9,312.2l-32-6.1c-4.1-0.8-6.8-4.8-6-8.9l9.2-48.1c0.8-4.1,4.8-6.8,8.9-6l27.5,5.4c3,3,7,10,9,14
		l-7.7,43.7C528,310.3,524,313,519.9,312.2z"/>
	<polyline class="st20" points="527.5,248.5 525.5,259.5 536.5,262.5 	"/>
	<line class="st20" x1="493.6" y1="268.5" x2="527.9" y2="275"/>
	<line class="st20" x1="506.5" y1="265.5" x2="529.9" y2="270"/>
	<line class="st20" x1="492.6" y1="272.5" x2="526.9" y2="279"/>
	<line class="st20" x1="491.6" y1="276.5" x2="525.9" y2="283"/>
	<line class="st20" x1="490.6" y1="280.5" x2="524.9" y2="287"/>
	<line class="st20" x1="489.6" y1="284.5" x2="523.9" y2="291"/>
	<path class="st20" d="M530.9,265.3"/>
	<path class="st20" d="M507.5,260.8"/>
	<path class="st16" d="M567.5,238.5l-7.6,45.8c-0.2,1.3-1.3,2.2-2.6,2.2l-68.6-1c-0.6,0-1.2-0.5-1.2-1.1l-0.7-8.5
		c-0.1-1.1-1.4-1.6-2.2-0.9c-3.1,2.7-5,6.6-6.3,11c-0.5,1.7-0.3,3.7,0.7,5.2c0.5,0.8,1.1,1.7,1.8,2.4c2,2.4,4.9,4.1,8,4.6l60.9,10.3
		c14.4,3.1,24.7,1.5,30-6l3-48L567.5,238.5z"/>
	<path class="st21" d="M489,225c0,0-7,11-9,35"/>
	<path class="st16" d="M521,141l-7,32l5,13l-2.8,12.2c-0.1,0.5,0.1,1.1,0.5,1.4c8.9,6.4,17.7,6.3,26.3-0.7c0.6-0.5,1-1.3,1-2.1
		l0.6-10.3c0.2-3.8,1.4-7.5,3.4-10.7c2.6-4.1,5.6-7.7,8.9-10.7l-1-24H521z"/>
	<path class="st22" d="M566.1,134.2c-1.1-0.9-0.9-2.3-1.2-3.4c-3.8-14.6-19.5-20.7-30.9-11.7c-5.4,4.3-10.6,6.4-17.5,4.4
		c-4.4-1.3-7.6,0.9-9.4,4.8c-1.7,3.9,0,6.2,3.1,8.4c2.5,1.7,4.1,3.9,1.6,6.9c-1.1,1.3-0.3,2.6,0.4,3.8c1.2,2.1,3.1,3.5,4.8,5.1
		c1,1.9,2.8,2.5,4.7,3.1c6.3,2,12.2,0.9,18-2c1.6-1.4,3.5-2.3,5.5-2.5c2.8-0.3,4,0.7,2.4,3.5c-1.1,1.8-1.6,3.8-1.6,5.9
		c0.1,2.8-0.3,5.5-2.2,7.8c-0.9,1.1-1.5,2.2-1.8,3.6c-0.1,1.3-0.4,2.4-1.5,3.3c-1.1,1-1.8,2.3-2.7,3.4c-4.1,2.4-3.3-1.7-4.5-3.3
		c-2.3-4.7-6.6-6.7-11.3-8c-3.1-0.1-6.6-1.3-8.4,2.6c0,0.2,0,0.3-0.1,0.5c-2.3,4.3-3,12.3,3.4,18.7c0.3,0.2,0.7,0.4,1,0.6
		c0.6,0.6,1.4,1.1,2.4,1.2c4.6,1.9,9,1.1,13.1-2c0.7-0.4,1.4-1,2-1.5c1.8-1.8,3.5-3.6,5.3-5.3c1.5-1.5,2.4-3.4,3.4-5.3
		c0.6-1.2,1.2-2.4,1.8-3.6c1.1-2.7,2.2-5.4,3.2-8.1c0.8-1.3-0.3-3.8,2.5-3.8c0.2,0.2,0.4,0.5,0.6,0.8c0.1,0.1,0.2,0.3,0.3,0.5
		c1.6,3.5,0,6.1-2.2,8.6c-0.4,0.5-0.6,1.1-0.6,1.7c0.3,1.2,0.8,2.1,2.2,1.2c7.4-4.6,14.1-10.1,17.5-18.3
		C572.6,148.1,573.5,140.4,566.1,134.2z"/>
</g>
<g id="man_2">
	<path class="st16" d="M635.5,99.5c-9.2-1.6-15,6-18,16s1,21,1,21v20l-1,6c9.5,4.9,18.8,5.3,28,0l6-29c3.6-6.5,5.3-13.2,4-20
		L635.5,99.5z"/>
	<path class="st13" d="M628.8,447.2c18.8-10.7,35.4-22.7,49.1-36.3l1.6-66.4h-50L628.8,447.2z"/>
	<path class="st13" d="M616.6,453.8L627,351l-48-5c-4,0.8-6.1,92.5-6.8,128.1C587.8,467.8,602.7,461.1,616.6,453.8z"/>
	<path class="st9" d="M557.6,263.7c0-0.2-0.1-0.3-0.1-0.5c-0.5-17.9,2.3-40,7-64.8c4.6-28.5,50.7-29,64.3-28.9
		c2.4,0,15.7-9,23.2-4.6c24,14,44.4,24.2,39.5,60.5c-2.9,32.1-3.4,71.8-14.5,77.5c-0.9,0.4-1.3,1.4-1.1,2.4
		c3.2,13.3,4.7,29.3,5.4,46.5c0.1,1.5-1.4,2.6-2.8,2.1c-5.5-1.9-14.2-1-25.1,1.5c-35.2,7.9-70.4,15.7-77.7,3.5
		c-0.2-0.3-0.3-0.7-0.3-1.1l1.9-71.8c0-1-0.6-1.8-1.5-2.1C566.4,280.7,559.9,274.3,557.6,263.7z"/>
	<path class="st23" d="M671.5,205.5c0,0-10,43-23,47s-58-21-58-21"/>
	<path class="st23" d="M586.5,203.5c0,0-3,20-2,36"/>
	<path class="st23" d="M584.5,247.5c0,0,61,62,91,56"/>
	<path class="st23" d="M577.5,284.5c0,0,22,12,46-2"/>
	<path class="st8" d="M585,219c7.3,2.4,10.4,9.7,8.5,19.5L589,251l-5-3L585,219z"/>
	<path class="st8" d="M635.3,252.2c-0.7-0.1-0.9-1-0.3-1.3c5.4-3.1,9.7-6.2,11-8.9c1.5-2.6,3.2-5,5.2-6.8c1.5-1.4,3.4-2.2,5.4-2.3
		l10.1-0.7c1.3-0.1,2.5,0.8,2.8,2.1c0.8,4.6,0.5,9.5-0.5,14.7c-0.9,1.7-2.2,2.7-4,3C656.1,254.5,646,254.1,635.3,252.2z"/>
	<line class="st24" x1="669" y1="236.5" x2="658" y2="236.5"/>
	<line class="st24" x1="669" y1="241.5" x2="659" y2="241.5"/>
	<line class="st24" x1="668" y1="246.5" x2="659" y2="246.5"/>
	<path class="st25" d="M655.7,168.2l-25.7,52.2c-0.9,1.9-3.7,1.8-4.5-0.2l-19.6-49.1c-0.2-0.4,0-0.8,0.4-1l6.3-2.7l42.1-1
		C655.5,166.5,656.1,167.4,655.7,168.2z"/>
	<path class="st26" d="M617,162c10.8,4.4,20.5,3.9,29-2l9,6c-12.7,13.2-27.6,14.7-45,3L617,162z"/>
	<path class="st27" d="M634,177L634,177c0.8,0,4.3-0.3,4-1l-5-11h-1l-5,11c-0.3,0.6,1,1,2,1h1l-8.4,33.6l3.9,9.7
		c0.8,2,3.6,2.1,4.5,0.2l6-12.2L634,177z"/>
	<g>
		<g>
			<path class="st28" d="M616.3,130.8c0,4,0.9,8.2-1.7,11.8C615.2,138.6,615.8,134.7,616.3,130.8z"/>
			<path class="st29" d="M614,145.9c-1.7,2.9-2.9,5.9-2.6,9.3c-2.4-3.7-0.1-6.5,1.7-9.3C613.4,145.5,613.7,145.5,614,145.9z"/>
			<g>
				<path class="st22" d="M615.8,158.4c-1.7-0.7-3.5-1.3-4.4-3.2c-1-3.4,0.2-6.4,2-9.2c0.5-1.2,1-2.3,1.2-3.6l0,0.1
					c1.9-3.7,1-7.9,1.7-11.8c0-0.4,0.1-0.8,0.1-1.2c1.8-1.5,3.9-1.1,6-0.8c2.7,0.9,5.1,2.5,7.7,3.6c4.1,1.7,6.3,0.8,7.4-3.4
					c1.5-5.4,2.7-10.8,3.6-16.3c0.8-5.3-1.2-7.7-6.5-8.1c-3.3-0.2-6.5-0.2-9.5-1.8c-0.8-1.4-2-2.5-3.4-3.3c-1.2-1.3-0.3-2,0.8-2.7
					c2.7-0.5,5.4-0.5,8.1,0c1.5-0.4,3-0.4,4.5,0c4.3,0.9,8.8,0.7,13.1,1.7c5.2,0.7,9.3,3,12,7.7c2,3.4,2,6.9,1.5,10.6
					c-0.7,5.5-1.7,11-3.5,16.3c-0.8,2.4-2.1,4.4-4.5,5.4c-3.4,0.3-4.2-0.5-3.9-3.5c0.2-1.6,1-3.1,1.5-4.6c0.5-1.4,0.8-2.9,0.5-4.4
					c-0.2-1.3-0.7-2.5-2.1-2.7c-1.5-0.2-2.2,1-2.5,2.2c-1.1,3.2-1.9,6.5-2,9.9c-0.2,5.5-1.7,10.6-4.5,15.4
					c-2.5,4.2-5.8,7.1-10.6,8.2c-4.2,0.9-8.4,1.5-12.5,0.1C617,158.9,616.4,158.6,615.8,158.4z"/>
				<path class="st30" d="M648.2,98.5c-4.4,0.1-8.8-0.4-13.1-1.7C639.6,96.7,644.1,96.5,648.2,98.5z"/>
				<path class="st30" d="M630.7,96.8c-2.7,0-5.4,0-8.1,0C625.3,95.9,628,96.1,630.7,96.8z"/>
				<path class="st30" d="M625.4,101.9c-0.5,0-1-0.1-1.5-0.1c-0.7-0.8-1.3-1.6-2-2.3C623.3,99.8,624.8,100.2,625.4,101.9z"/>
			</g>
			<path class="st28" d="M614,145.9c-0.3,0-0.5,0-0.8,0c0.2-1.3,0.6-2.4,1.5-3.4C615,143.7,614.5,144.8,614,145.9z"/>
		</g>
		<path class="st29" d="M630.4,158.1c-4.4,2.1-8.9,2.5-13.3,0C621.5,159.4,626,158.9,630.4,158.1z"/>
	</g>
</g>
</svg>
