<?xml version="1.0" encoding="utf-8"?>
<!-- Generator: Adobe Illustrator 22.1.0, SVG Export Plug-In . SVG Version: 6.00 Build 0)  -->
<svg version="1.1" id="Слой_1" xmlns="http://www.w3.org/2000/svg" xmlns:xlink="http://www.w3.org/1999/xlink" x="0px" y="0px"
	 viewBox="0 0 152 31" style="enable-background:new 0 0 152 31;" xml:space="preserve">
<g>
	<path d="M15.7,8.6H19v8.6c0,2.1-0.6,3.7-1.7,4.7c-1.1,1.1-2.6,1.6-4.3,1.6c-2,0-3.5-0.6-4.7-1.7c-1.2-1.1-1.7-2.7-1.7-4.8V8.6H10
		v7.8c0,2.7,1,4,3,4c0.9,0,1.6-0.3,2-0.9c0.4-0.6,0.6-1.6,0.6-2.9V8.6z"/>
	<path d="M48.3,23.3H39V8.6h3.4v11.6h6V23.3z"/>
	<path d="M68.3,23.3h-3.4L71,8.6h3l6.1,14.7h-3.6l-1.2-3.1h-5.8L68.3,23.3z M74.1,17l-1.6-4.2L70.8,17H74.1z"/>
	<path d="M111.2,8.6v14.7h-2.7l-7-8.8v8.8h-3.1V8.6h2.7l7,8.9V8.6H111.2z"/>
	<path d="M131.7,23.3h-0.4V8.6h0.3c0.6,0,1.3,0,2.1,0c0.3,0,0.6,0,1,0c0.4,0,0.6,0,0.8,0c0.2,0,0.3,0,0.4,0c2.8,0,4.8,0.7,6.2,2.1
		c1.4,1.4,2.1,3.1,2.1,5.2c0,2.2-0.7,4-2.2,5.4c-1.5,1.4-3.5,2.1-6.2,2.1c-0.5,0-1.2,0-1.8,0C133.4,23.3,132.6,23.3,131.7,23.3z
		 M136,11.7c-0.5,0-1,0-1.2,0.1v8.4c0.4,0,0.8,0,1.2,0c1.5,0,2.6-0.4,3.5-1.2c0.8-0.8,1.3-1.8,1.3-3.2c0-1.3-0.4-2.3-1.3-3
		C138.6,12,137.4,11.7,136,11.7z"/>
</g>
</svg>
