<svg xmlns="http://www.w3.org/2000/svg" viewBox="0 0 152 31"><path d="M15.7 8.6H19v8.6c0 2.1-.6 3.7-1.7 4.7-1.1 1.1-2.6 1.6-4.3 1.6-2 0-3.5-.6-4.7-1.7-1.2-1.1-1.7-2.7-1.7-4.8V8.6H10v7.8c0 2.7 1 4 3 4 .9 0 1.6-.3 2-.9.4-.6.6-1.6.6-2.9v-8zm32.6 14.7H39V8.6h3.4v11.6h6v3.1zm20 0h-3.4L71 8.6h3l6.1 14.7h-3.6l-1.2-3.1h-5.8l-1.2 3.1zm5.8-6.3l-1.6-4.2-1.7 4.2h3.3zm37.1-8.4v14.7h-2.7l-7-8.8v8.8h-3.1V8.6h2.7l7 8.9V8.6h3.1zm20.5 14.7h-.4V8.6h4.6c2.8 0 4.8.7 6.2 2.1 1.4 1.4 2.1 3.1 2.1 5.2 0 2.2-.7 4-2.2 5.4-1.5 1.4-3.5 2.1-6.2 2.1H134c-.6-.1-1.4-.1-2.3-.1zm4.3-11.6c-.5 0-1 0-1.2.1v8.4h1.2c1.5 0 2.6-.4 3.5-1.2.8-.8 1.3-1.8 1.3-3.2 0-1.3-.4-2.3-1.3-3-.9-.8-2.1-1.1-3.5-1.1z"/></svg>