<svg viewBox="0 0 128 128" xmlns="http://www.w3.org/2000/svg"><g clip-rule="evenodd" fill-rule="evenodd"><path fill="none" d="M0 0h128v128H0z"/><path d="M40.654 55.935v16.13s15.619-.021 21.979-.021c-3.444 10.456-8.799 16.15-21.979 16.15-13.338 0-23.748-10.832-23.748-24.194s10.41-24.194 23.748-24.194c7.052 0 11.607 2.483 15.784 5.944 3.344-3.35 3.065-3.828 11.573-11.877-7.222-6.586-16.822-10.6-27.357-10.6C18.201 23.273 0 41.507 0 64c0 22.493 18.201 40.727 40.654 40.727 33.561 0 41.763-29.275 39.044-48.792H40.654zm73.258.807V42.628h-10.063v14.113H89.358v10.081h14.491v14.517h10.063V66.823H128V56.742h-14.088z" fill="#fff"/></g></svg>